<svg xmlns="http://www.w3.org/2000/svg" viewBox="0 0 400 300">
  <defs>
    <linearGradient id="sky4" x1="0" y1="0" x2="0" y2="1">
      <stop offset="0%" stop-color="#5a7c4a"/>
      <stop offset="60%" stop-color="#4a6b38"/>
      <stop offset="100%" stop-color="#3d5c2e"/>
    </linearGradient>
    <linearGradient id="sunGlow" x1="0.5" y1="0" x2="0.5" y2="1">
      <stop offset="0%" stop-color="#f5d078" stop-opacity="0.3"/>
      <stop offset="100%" stop-color="#f5d078" stop-opacity="0"/>
    </linearGradient>
  </defs>
  <!-- Morning sky -->
  <rect width="400" height="300" fill="url(#sky4)"/>
  <!-- Sun rising -->
  <circle cx="200" cy="180" r="80" fill="url(#sunGlow)"/>
  <circle cx="200" cy="180" r="25" fill="#f5e6b0" opacity="0.3"/>
  <circle cx="200" cy="180" r="15" fill="#f5e6b0" opacity="0.2"/>
  <!-- Hills -->
  <path d="M0 190 Q60 165 120 178 Q180 155 240 172 Q300 150 360 170 Q380 165 400 175 L400 300 L0 300Z" fill="#4a6b38"/>
  <path d="M0 220 Q100 210 200 215 Q300 220 400 210 L400 300 L0 300Z" fill="#3d5c2e"/>
  <!-- Village rooftops in distance -->
  <rect x="90" y="178" width="18" height="14" fill="#6b5e4f" opacity="0.5"/>
  <polygon points="88,178 99,168 110,178" fill="#4a4a4a" opacity="0.5"/>
  <rect x="115" y="175" width="15" height="17" fill="#6b5e4f" opacity="0.5"/>
  <polygon points="113,175 123,166 133,175" fill="#4a4a4a" opacity="0.5"/>
  <rect x="270" y="172" width="16" height="16" fill="#6b5e4f" opacity="0.5"/>
  <polygon points="268,172 278,162 290,172" fill="#4a4a4a" opacity="0.5"/>
  <rect x="295" y="176" width="20" height="12" fill="#6b5e4f" opacity="0.5"/>
  <polygon points="293,176 305,165 318,176" fill="#4a4a4a" opacity="0.5"/>
  <!-- Central: hands planting a young tree -->
  <!-- Young tree -->
  <rect x="196" y="210" width="8" height="35" rx="2" fill="#5a4a38"/>
  <!-- Branches -->
  <path d="M200 225 Q185 210 178 200" stroke="#5a4a38" stroke-width="2.5" fill="none" stroke-linecap="round"/>
  <path d="M200 225 Q215 208 222 198" stroke="#5a4a38" stroke-width="2.5" fill="none" stroke-linecap="round"/>
  <path d="M200 215 Q190 205 185 195" stroke="#5a4a38" stroke-width="2" fill="none" stroke-linecap="round"/>
  <path d="M200 218 Q212 205 218 195" stroke="#5a4a38" stroke-width="2" fill="none" stroke-linecap="round"/>
  <!-- Leaves -->
  <circle cx="178" cy="198" r="10" fill="#4a8c2a" opacity="0.8"/>
  <circle cx="185" cy="192" r="8" fill="#5aa035" opacity="0.7"/>
  <circle cx="222" cy="196" r="10" fill="#4a8c2a" opacity="0.8"/>
  <circle cx="218" cy="190" r="9" fill="#5aa035" opacity="0.7"/>
  <circle cx="200" cy="205" r="10" fill="#3d7317" opacity="0.7"/>
  <circle cx="193" cy="200" r="7" fill="#5aa035" opacity="0.6"/>
  <circle cx="210" cy="200" r="7" fill="#5aa035" opacity="0.6"/>
  <!-- Hands planting (two pairs from sides) -->
  <!-- Left hand -->
  <path d="M155 255 Q170 248 185 247 Q192 246 196 245" stroke="#c9b88c" stroke-width="4" fill="none" stroke-linecap="round"/>
  <circle cx="155" cy="256" r="5" fill="#c9b88c" opacity="0.8"/>
  <!-- Right hand -->
  <path d="M245 253 Q230 247 215 246 Q208 245 204 245" stroke="#c9b88c" stroke-width="4" fill="none" stroke-linecap="round"/>
  <circle cx="245" cy="254" r="5" fill="#c9b88c" opacity="0.8"/>
  <!-- Earth mound -->
  <ellipse cx="200" cy="248" rx="25" ry="8" fill="#5a4a38" opacity="0.5"/>
  <ellipse cx="200" cy="246" rx="18" ry="5" fill="#6b5744" opacity="0.4"/>
  <!-- Small seedlings around -->
  <line x1="140" y1="250" x2="140" y2="240" stroke="#5aa035" stroke-width="1.5" stroke-linecap="round"/>
  <circle cx="140" cy="238" r="3" fill="#4a8c2a" opacity="0.5"/>
  <line x1="260" y1="248" x2="260" y2="238" stroke="#5aa035" stroke-width="1.5" stroke-linecap="round"/>
  <circle cx="260" cy="236" r="3" fill="#4a8c2a" opacity="0.5"/>
  <line x1="160" y1="258" x2="160" y2="250" stroke="#5aa035" stroke-width="1.2" stroke-linecap="round"/>
  <circle cx="160" cy="249" r="2.5" fill="#4a8c2a" opacity="0.4"/>
  <line x1="240" y1="256" x2="240" y2="248" stroke="#5aa035" stroke-width="1.2" stroke-linecap="round"/>
  <circle cx="240" cy="247" r="2.5" fill="#4a8c2a" opacity="0.4"/>
  <!-- Birds -->
  <path d="M100 80 Q105 75 110 80" stroke="#2d4a20" stroke-width="1.5" fill="none" stroke-linecap="round"/>
  <path d="M115 70 Q120 65 125 70" stroke="#2d4a20" stroke-width="1.5" fill="none" stroke-linecap="round"/>
  <path d="M300 90 Q305 85 310 90" stroke="#2d4a20" stroke-width="1.5" fill="none" stroke-linecap="round"/>
  <!-- Sun rays suggestion -->
  <line x1="200" y1="155" x2="200" y2="140" stroke="#f5e6b0" stroke-width="1" opacity="0.2" stroke-linecap="round"/>
  <line x1="215" y1="158" x2="225" y2="145" stroke="#f5e6b0" stroke-width="1" opacity="0.15" stroke-linecap="round"/>
  <line x1="185" y1="158" x2="175" y2="145" stroke="#f5e6b0" stroke-width="1" opacity="0.15" stroke-linecap="round"/>
</svg>
